<svg width="210" height="300" viewBox="0 0 210 300" fill="none" xmlns="http://www.w3.org/2000/svg">
<g clip-path="url(#clip0_1810_19947)">
<path d="M180.947 49.2656L125.645 11.6531C114.537 4.06246 101.354 -0.00224077 87.8523 9.26731e-07C64.5451 0.0397253 42.2056 9.22211 25.7355 25.5324C9.26544 41.8427 0.0100073 63.9487 0 87L0 212.541C0.0275954 235.728 9.35322 257.958 25.9312 274.354C42.5091 290.749 64.9858 299.973 88.4305 300H121.446C170.216 300 210 260.766 210 212.541V103.734C210.002 93.0029 207.357 82.4331 202.294 72.9414C197.231 63.4498 189.903 55.3229 180.947 49.2656ZM116.669 33.5812L165.202 66.5625L127.864 72.1031C126.461 72.267 125.04 72.1358 123.692 71.7183C122.345 71.3007 121.102 70.6062 120.045 69.6803C118.988 68.7544 118.141 67.618 117.559 66.3455C116.977 65.0731 116.674 63.6934 116.669 62.2969V33.5812ZM186.662 212.541C186.63 229.626 179.744 246.001 167.518 258.07C155.291 270.14 138.721 276.919 121.446 276.919H88.4305C71.1683 276.914 54.6146 270.13 42.4084 258.057C30.2022 245.985 23.3426 229.613 23.3375 212.541V87C23.3475 70.0702 30.1442 53.835 42.2376 41.8533C54.3311 29.8716 70.7346 23.121 87.8523 23.0813C89.684 23.0778 91.5141 23.1905 93.3312 23.4188V62.3062C93.3265 66.9719 94.3228 71.5855 96.2542 75.8422C98.1856 80.0989 101.008 83.9019 104.536 87C110.679 92.2907 118.552 95.2015 126.698 95.1937C128.143 95.2326 129.588 95.1542 131.02 94.9594L183.155 87.2344C185.484 92.4291 186.676 98.052 186.653 103.734L186.662 212.541Z" fill="#2563EB"/>
<path d="M130.631 173.109H79.3021C77.7424 173.153 76.1896 172.887 74.7356 172.327C73.2816 171.768 71.9559 170.925 70.8369 169.849C69.718 168.774 68.8285 167.487 68.2211 166.066C67.6137 164.644 67.3008 163.117 67.3008 161.573C67.3008 160.03 67.6137 158.503 68.2211 157.081C68.8285 155.66 69.718 154.373 70.8369 153.297C71.9559 152.222 73.2816 151.379 74.7356 150.819C76.1896 150.259 77.7424 149.993 79.3021 150.037H130.631C132.191 149.993 133.744 150.259 135.198 150.819C136.652 151.379 137.978 152.222 139.097 153.297C140.216 154.373 141.105 155.66 141.712 157.081C142.32 158.503 142.633 160.03 142.633 161.573C142.633 163.117 142.32 164.644 141.712 166.066C141.105 167.487 140.216 168.774 139.097 169.849C137.978 170.925 136.652 171.768 135.198 172.327C133.744 172.887 132.191 173.153 130.631 173.109Z" fill="#2563EB"/>
<path d="M130.631 230.803H79.3021C77.7424 230.847 76.1896 230.581 74.7356 230.021C73.2816 229.461 71.9559 228.619 70.8369 227.543C69.718 226.468 68.8285 225.181 68.2211 223.759C67.6137 222.338 67.3008 220.81 67.3008 219.267C67.3008 217.724 67.6137 216.196 68.2211 214.775C68.8285 213.353 69.718 212.067 70.8369 210.991C71.9559 209.916 73.2816 209.073 74.7356 208.513C76.1896 207.953 77.7424 207.687 79.3021 207.731H130.631C132.191 207.687 133.744 207.953 135.198 208.513C136.652 209.073 137.978 209.916 139.097 210.991C140.216 212.067 141.105 213.353 141.712 214.775C142.32 216.196 142.633 217.724 142.633 219.267C142.633 220.81 142.32 222.338 141.712 223.759C141.105 225.181 140.216 226.468 139.097 227.543C137.978 228.619 136.652 229.461 135.198 230.021C133.744 230.581 132.191 230.847 130.631 230.803Z" fill="#2563EB"/>
</g>
<defs>
<clipPath id="clip0_1810_19947">
<rect width="210" height="300" fill="white"/>
</clipPath>
</defs>
</svg>
