<svg width="444" height="444" viewBox="0 0 444 444" fill="none" xmlns="http://www.w3.org/2000/svg">
<g clip-path="url(#clip0_1810_19911)">
<path d="M408.743 0H35.2571C15.7851 0 0 15.7851 0 35.2571V408.743C0 428.215 15.7851 444 35.2571 444H408.743C428.215 444 444 428.215 444 408.743V35.2571C444 15.7851 428.215 0 408.743 0Z" fill="white"/>
<g clip-path="url(#clip1_1810_19911)">
<path d="M297.947 121.266L242.645 83.6531C231.537 76.0625 218.354 71.9978 204.852 72C181.545 72.0397 159.206 81.2221 142.736 97.5324C126.265 113.843 117.01 135.949 117 159V284.541C117.028 307.728 126.353 329.958 142.931 346.354C159.509 362.749 181.986 371.973 205.431 372H238.446C287.216 372 327 332.766 327 284.541V175.734C327.002 165.003 324.357 154.433 319.294 144.941C314.231 135.45 306.903 127.323 297.947 121.266ZM233.669 105.581L282.202 138.562L244.864 144.103C243.461 144.267 242.04 144.136 240.692 143.718C239.345 143.301 238.102 142.606 237.045 141.68C235.988 140.754 235.141 139.618 234.559 138.346C233.977 137.073 233.674 135.693 233.669 134.297V105.581ZM303.662 284.541C303.63 301.626 296.744 318.001 284.518 330.07C272.291 342.14 255.721 348.919 238.446 348.919H205.431C188.168 348.914 171.615 342.13 159.408 330.057C147.202 317.985 140.343 301.613 140.338 284.541V159C140.348 142.07 147.144 125.835 159.238 113.853C171.331 101.872 187.735 95.121 204.852 95.0813C206.684 95.0778 208.514 95.1905 210.331 95.4188V134.306C210.327 138.972 211.323 143.585 213.254 147.842C215.186 152.099 218.008 155.902 221.536 159C227.679 164.291 235.552 167.201 243.698 167.194C245.143 167.233 246.588 167.154 248.02 166.959L300.155 159.234C302.484 164.429 303.676 170.052 303.653 175.734L303.662 284.541Z" fill="#2563EB"/>
<path d="M247.631 245.109H196.302C194.742 245.153 193.19 244.887 191.736 244.327C190.282 243.768 188.956 242.925 187.837 241.849C186.718 240.774 185.828 239.487 185.221 238.066C184.614 236.644 184.301 235.117 184.301 233.573C184.301 232.03 184.614 230.503 185.221 229.081C185.828 227.66 186.718 226.373 187.837 225.297C188.956 224.222 190.282 223.379 191.736 222.819C193.19 222.259 194.742 221.993 196.302 222.037H247.631C249.191 221.993 250.744 222.259 252.198 222.819C253.652 223.379 254.978 224.222 256.097 225.297C257.216 226.373 258.105 227.66 258.712 229.081C259.32 230.503 259.633 232.03 259.633 233.573C259.633 235.117 259.32 236.644 258.712 238.066C258.105 239.487 257.216 240.774 256.097 241.849C254.978 242.925 253.652 243.768 252.198 244.327C250.744 244.887 249.191 245.153 247.631 245.109Z" fill="#2563EB"/>
<path d="M247.631 302.803H196.302C194.742 302.847 193.19 302.581 191.736 302.021C190.282 301.461 188.956 300.619 187.837 299.543C186.718 298.468 185.828 297.181 185.221 295.759C184.614 294.338 184.301 292.81 184.301 291.267C184.301 289.724 184.614 288.196 185.221 286.775C185.828 285.353 186.718 284.067 187.837 282.991C188.956 281.916 190.282 281.073 191.736 280.513C193.19 279.953 194.742 279.687 196.302 279.731H247.631C249.191 279.687 250.744 279.953 252.198 280.513C253.652 281.073 254.978 281.916 256.097 282.991C257.216 284.067 258.105 285.353 258.712 286.775C259.32 288.196 259.633 289.724 259.633 291.267C259.633 292.81 259.32 294.338 258.712 295.759C258.105 297.181 257.216 298.468 256.097 299.543C254.978 300.619 253.652 301.461 252.198 302.021C250.744 302.581 249.191 302.847 247.631 302.803Z" fill="#2563EB"/>
</g>
</g>
<defs>
<clipPath id="clip0_1810_19911">
<rect width="444" height="444" fill="white"/>
</clipPath>
<clipPath id="clip1_1810_19911">
<rect width="210" height="300" fill="white" transform="translate(117 72)"/>
</clipPath>
</defs>
</svg>
