<svg width="512" height="512" viewBox="0 0 512 512" fill="none" xmlns="http://www.w3.org/2000/svg">
<g clip-path="url(#clip0_1810_19935)">
<path d="M512 256C512 114.615 397.385 0 256 0C114.615 0 0 114.615 0 256C0 397.385 114.615 512 256 512C397.385 512 512 397.385 512 256Z" fill="white"/>
<g clip-path="url(#clip1_1810_19935)">
<path d="M331.947 155.266L276.645 117.653C265.537 110.062 252.354 105.998 238.852 106C215.545 106.04 193.206 115.222 176.736 131.532C160.265 147.843 151.01 169.949 151 193V318.541C151.028 341.728 160.353 363.958 176.931 380.354C193.509 396.749 215.986 405.973 239.431 406H272.446C321.216 406 361 366.766 361 318.541V209.734C361.002 199.003 358.357 188.433 353.294 178.941C348.231 169.45 340.903 161.323 331.947 155.266ZM267.669 139.581L316.202 172.562L278.864 178.103C277.461 178.267 276.04 178.136 274.692 177.718C273.345 177.301 272.102 176.606 271.045 175.68C269.988 174.754 269.141 173.618 268.559 172.346C267.977 171.073 267.674 169.693 267.669 168.297V139.581ZM337.662 318.541C337.63 335.626 330.744 352.001 318.518 364.07C306.291 376.14 289.721 382.919 272.446 382.919H239.431C222.168 382.914 205.615 376.13 193.408 364.057C181.202 351.985 174.343 335.613 174.338 318.541V193C174.348 176.07 181.144 159.835 193.238 147.853C205.331 135.872 221.735 129.121 238.852 129.081C240.684 129.078 242.514 129.19 244.331 129.419V168.306C244.327 172.972 245.323 177.585 247.254 181.842C249.186 186.099 252.008 189.902 255.536 193C261.679 198.291 269.552 201.201 277.698 201.194C279.143 201.233 280.588 201.154 282.02 200.959L334.155 193.234C336.484 198.429 337.676 204.052 337.653 209.734L337.662 318.541Z" fill="#2563EB"/>
<path d="M281.631 279.109H230.302C228.742 279.153 227.19 278.887 225.736 278.327C224.282 277.768 222.956 276.925 221.837 275.849C220.718 274.774 219.828 273.487 219.221 272.066C218.614 270.644 218.301 269.117 218.301 267.573C218.301 266.03 218.614 264.503 219.221 263.081C219.828 261.66 220.718 260.373 221.837 259.297C222.956 258.222 224.282 257.379 225.736 256.819C227.19 256.259 228.742 255.993 230.302 256.037H281.631C283.191 255.993 284.744 256.259 286.198 256.819C287.652 257.379 288.978 258.222 290.097 259.297C291.216 260.373 292.105 261.66 292.712 263.081C293.32 264.503 293.633 266.03 293.633 267.573C293.633 269.117 293.32 270.644 292.712 272.066C292.105 273.487 291.216 274.774 290.097 275.849C288.978 276.925 287.652 277.768 286.198 278.327C284.744 278.887 283.191 279.153 281.631 279.109Z" fill="#2563EB"/>
<path d="M281.631 336.803H230.302C228.742 336.847 227.19 336.581 225.736 336.021C224.282 335.461 222.956 334.619 221.837 333.543C220.718 332.468 219.828 331.181 219.221 329.759C218.614 328.338 218.301 326.81 218.301 325.267C218.301 323.724 218.614 322.196 219.221 320.775C219.828 319.353 220.718 318.067 221.837 316.991C222.956 315.916 224.282 315.073 225.736 314.513C227.19 313.953 228.742 313.687 230.302 313.731H281.631C283.191 313.687 284.744 313.953 286.198 314.513C287.652 315.073 288.978 315.916 290.097 316.991C291.216 318.067 292.105 319.353 292.712 320.775C293.32 322.196 293.633 323.724 293.633 325.267C293.633 326.81 293.32 328.338 292.712 329.759C292.105 331.181 291.216 332.468 290.097 333.543C288.978 334.619 287.652 335.461 286.198 336.021C284.744 336.581 283.191 336.847 281.631 336.803Z" fill="#2563EB"/>
</g>
</g>
<defs>
<clipPath id="clip0_1810_19935">
<rect width="512" height="512" fill="white"/>
</clipPath>
<clipPath id="clip1_1810_19935">
<rect width="210" height="300" fill="white" transform="translate(151 106)"/>
</clipPath>
</defs>
</svg>
